<?xml version="1.0" encoding="utf-8"?>
<!-- Generator: Adobe Illustrator 22.0.0, SVG Export Plug-In . SVG Version: 6.00 Build 0)  -->
<svg version="1.1" id="Capa_1" xmlns="http://www.w3.org/2000/svg" xmlns:xlink="http://www.w3.org/1999/xlink" x="0px" y="0px"
	 viewBox="0 0 280.3 104.4" style="enable-background:new 0 0 280.3 104.4;" xml:space="preserve">
<style type="text/css">
	.st0{fill:#003B4D;}
	.st1{fill:#FD495C;}
</style>
<g>
	<g>
		<path class="st0" d="M33.5,32.7c0-0.6,0.5-1.2,1.1-1.2h25c0.7,0,1.1,0.6,1.1,1.2v6.7c0,0.6-0.5,1.2-1.1,1.2H42.9v8.9h13.8
			c0.6,0,1.1,0.6,1.1,1.2v6.7c0,0.6-0.5,1.2-1.1,1.2H42.9v15c0,0.6-0.5,1.2-1.1,1.2h-7.1c-0.7,0-1.1-0.6-1.1-1.2V32.7z"/>
	</g>
	<g>
		<path class="st0" d="M67.4,32.7c0-0.6,0.5-1.2,1.1-1.2h7.2c0.6,0,1.1,0.6,1.1,1.2v40.8c0,0.6-0.5,1.2-1.1,1.2h-7.2
			c-0.6,0-1.1-0.6-1.1-1.2V32.7z"/>
	</g>
	<g>
		<path class="st0" d="M169.1,33.1c-0.4-0.8,0.1-1.6,1-1.6h8c0.5,0,0.9,0.4,1,0.7l10,22.5h0.4l10-22.5c0.1-0.3,0.5-0.7,1-0.7h8
			c0.9,0,1.4,0.8,1,1.6l-18.9,41.5c-0.2,0.4-0.5,0.7-1,0.7h-0.6c-0.5,0-0.8-0.3-1-0.7L169.1,33.1z"/>
	</g>
	<g>
		<path class="st0" d="M215.5,32.7c0-0.6,0.5-1.2,1.1-1.2h25c0.7,0,1.1,0.6,1.1,1.2v6.7c0,0.6-0.5,1.2-1.1,1.2h-16.7v7.7h13.8
			c0.6,0,1.1,0.6,1.1,1.2v6.7c0,0.7-0.5,1.2-1.1,1.2h-13.8v8.3h16.7c0.7,0,1.1,0.6,1.1,1.2v6.7c0,0.6-0.5,1.2-1.1,1.2h-25
			c-0.7,0-1.1-0.6-1.1-1.2V32.7z"/>
	</g>
	<g>
		<path class="st1" d="M176.2,74.5c0.4,0.8-0.1,1.6-1,1.6h-8c-0.5,0-0.9-0.4-1-0.7l-10-22.5h-0.4l-10,22.5c-0.1,0.3-0.5,0.7-1,0.7
			h-8c-0.9,0-1.4-0.8-1-1.6l18.9-41.5c0.2-0.4,0.5-0.7,1-0.7h0.6c0.5,0,0.8,0.3,1,0.7L176.2,74.5z"/>
	</g>
	<g>
		<g>
			<path class="st0" d="M98.5,65.3c-3.4,3.9-12.2,12.3-13.1,2.2c-0.5-5.6,0.8-26.7,6.5-28.3c4.7-1.3,1.9,11.1,1.1,14.7
				c-0.9,4.1-3.5,11.8-1.2,13.3c0.9,0.6,7.3-7.5,10.1-10.8c3-3.6,8.7-2.5,10,1.9c0.9,3.1,0.5,10,2.4,12.8c3.5,5.1,6.8-3.2,7.7-7.1
				c0.7-2.7,2.4-25.4,10.4-25.9c6.1-0.4,18.4,14.9,21.1,18c5.2,6.1,12.3,5.1,17,5.5c-3.5,1-11.6,4.3-16.1,1.5
				c-4.5-2.7-17.1-19.8-20.7-19.3c-2.9,0.4-4.7,11.2-5.1,14c-0.8,5.4-2.6,12.6-6.3,16.8c-5.5,6.2-11.7,3.3-13.5-3.7
				c-0.7-2.5-0.6-10.1-2.7-11.6C103.7,57.5,99.8,63.8,98.5,65.3z"/>
		</g>
	</g>
</g>
</svg>
